<svg id="fi_4082843" height="512" viewBox="0 0 512 512" width="512" xmlns="http://www.w3.org/2000/svg" data-name="Layer 1"><path d="m409.91 349.6-11.68 33.28a44.327 44.327 0 0 1 -1.97 21.73l-32.16 91.39h78.97l46.97-129.78z" fill="#577257"></path><path d="m422.47 207.44a3.288 3.288 0 0 1 .21 6.35l-53.49 16.02-.09.03-7.34-22.13h.1a1.673 1.673 0 0 0 1.88-1.84 89.2 89.2 0 0 0 -2.42-12.53z" fill="#759a76"></path><path d="m398.23 382.88a44.327 44.327 0 0 1 -1.97 21.73l-32.16 91.39h-35.05l39.53-124.55 17.93-12.12c.79.81 1.51 1.6 2.15 2.37a44.145 44.145 0 0 1 9.57 21.18z" fill="#698b69"></path><path d="m383.05 100.71a3.278 3.278 0 0 1 4.62 4.34l-37.79 61.89a79.322 79.322 0 0 0 -29.68-27.69z" fill="#759a76"></path><path d="m386.51 359.33-17.93 12.12a46.281 46.281 0 0 1 -34.97 7.06l-4.22-16.64 39.96-14.74h.01c5.74 2.37 12.57 7.48 17.15 12.2z" fill="#96c596"></path><path d="m385.48 337.62c0-.02 0-.03-.01-.04l-23.78-93.11v-.01c-5.46.26-11.06.69-17.79-1.23l-.04.13v21.31a64.512 64.512 0 0 1 -26 51.83l11.53 45.37 53.57-19.75a3.89 3.89 0 0 0 2.52-4.5z" fill="#506850"></path><path d="m369.1 229.84 5.08 15.35a42.905 42.905 0 0 0 -12.49-.73c-5.46.26-11.06.69-17.79-1.23-9.43-2.67-21.08-9.93-37.69-28.65v-.01c13.29 5.39 27.71-.52 32.12-5.92l23.43-.94z" fill="#577257"></path><path d="m333.61 378.51a46.281 46.281 0 0 0 34.97-7.06l-39.53 124.55h-87.29l71.82-121.68 19.58 4.1z" fill="#577257"></path><path d="m281.5 168.33c-.75-.03-1.5-.04-2.26-.04a63.463 63.463 0 0 0 -58.71 39.41h-28.37a1.669 1.669 0 0 1 -1.88-1.84 89.135 89.135 0 0 1 2.42-12.52 94.537 94.537 0 0 1 11.44-26.4v-.01a79.381 79.381 0 0 1 29.68-27.68 88.153 88.153 0 0 1 15.76-6.57 92.83 92.83 0 0 1 50.22-1.31q2.43.615 4.82 1.36a87.517 87.517 0 0 1 15.58 6.52 79.322 79.322 0 0 1 29.68 27.69 94.71 94.71 0 0 1 11.44 26.4 89.2 89.2 0 0 1 2.42 12.53 1.673 1.673 0 0 1 -1.88 1.84h-.1l-23.43.94a63.48 63.48 0 0 0 -56.83-40.32z" fill="#96c596"></path><path d="m343.9 243.23-.04.13v21.31a64.436 64.436 0 0 1 -102.9 51.84v-.01a64.506 64.506 0 0 1 -26.01-51.83v-23.99l-.06-.14c9.51-3.91 20.71-11.77 34.52-27.49l.01-.01c12.63-2.48 25.55-13.26 29.82-44.75.76 0 1.51.01 2.26.04 2.73 28.69 13.3 41.62 24.71 46.24v.01c16.61 18.72 28.26 25.98 37.69 28.65z" fill="#96c596"></path><path d="m317.86 316.5a64.372 64.372 0 0 1 -76.9.01l-7.51 29.57-.11.13a83.4 83.4 0 0 1 13.7 14.18l66.54 13.93 19.58 4.1.45.09z" fill="#759a76"></path><path d="m338.33 208.65c-4.41 5.4-18.83 11.31-32.12 5.92-11.41-4.62-21.98-17.55-24.71-46.24a63.48 63.48 0 0 1 56.83 40.32z" fill="#698b69"></path><path d="m247.04 360.39a83.4 83.4 0 0 0 -13.7-14.18 159.678 159.678 0 0 0 -20.18-13.93c-2.61-1.56-5.18-3.06-7.68-4.51l-76.48-44.54-48.78 71.69 60.94 83.79a61.324 61.324 0 0 1 12.69 37.36v19.93h87.91l71.82-121.68z" fill="#96c596"></path><path d="m282.84 59.14 16.96 72.23a92.605 92.605 0 0 0 -40.3-1.17l17.01-70.85a3.273 3.273 0 0 1 6.33-.21z" fill="#759a76"></path><path d="m279.24 168.29c-4.27 31.49-17.19 42.27-29.82 44.75l-.01.01c-14.63 2.87-28.88-5.35-28.88-5.35a63.463 63.463 0 0 1 58.71-39.41z" fill="#698b69"></path><path d="m185.78 244.35a41.212 41.212 0 0 0 -5.91.45l4.96-14.99 7.33-22.11h28.37s14.25 8.22 28.88 5.35c-13.81 15.72-25.01 23.58-34.52 27.49a48.954 48.954 0 0 1 -13.29 3.41c-5.81.66-10.96.3-15.82.4z" fill="#577257"></path><path d="m240.96 316.5v.01l-7.51 29.57-.11.13a159.678 159.678 0 0 0 -20.18-13.93l.02-.03 4.75-48.13a64.495 64.495 0 0 0 23.03 32.38z" fill="#698b69"></path><path d="m174.891 101.377 62.85 38.54a79.381 79.381 0 0 0 -29.68 27.68l-37.79-61.88a3.278 3.278 0 0 1 4.62-4.34z" fill="#759a76"></path><path d="m217.93 284.12-4.75 48.13-.02.03c-2.61-1.56-5.18-3.06-7.68-4.51l-15.81-9.21 11.94-74.52-.01-.09a48.954 48.954 0 0 0 13.29-3.41l.06.14v23.99a64.432 64.432 0 0 0 2.98 19.45z" fill="#506850"></path><path d="m201.6 243.95.01.09-11.94 74.52-21.44-12.48 17.55-61.73c4.86-.1 10.01.26 15.82-.4z" fill="#698b69"></path><path d="m131.55 207.44 61.15-14.1a89.135 89.135 0 0 0 -2.42 12.52 1.669 1.669 0 0 0 1.88 1.84l-7.33 22.11-53.49-16.02a3.288 3.288 0 0 1 .21-6.35z" fill="#759a76"></path><path d="m94.52 168.13h-.01l-37.35 74.88 27.89 104.81 43.95-64.59z" fill="#698b69"></path><path d="m28.1 93.66h76.92v23.25h-76.92z" fill="#698b69"></path><path d="m99.42 54.83c7.25 24.72-12.14 38.83-12.14 38.83h-34.28s-38.2-21.22 15.19-77.66c0 0 7.62 19.37 10.02 34.5 1.67 10.55 15.49 13.5 21.14 4.45.05-.08.07-.12.07-.12z" fill="#96c596"></path><path d="m34.45 116.91 18.86 126.1h3.85 30.18l12.08-126.1z" fill="#577257"></path><path d="m45.07 126.69c12.77 0 23.12 15.26 23.12 34.08 0 18.31-9.8 33.24-22.09 34.04-.34.02-.68.03-1.03.03-12.76 0-23.11-15.25-23.11-34.07 0-14.24 5.92-26.44 14.33-31.53a16.746 16.746 0 0 1 8.78-2.55z" fill="#96c596"></path><path d="m465.53 433.95c11.16 3.74 16.8 18.35 12.62 33.11-4.27 15.1-17.19 24.65-28.86 21.33a16.689 16.689 0 0 1 -3.04-1.19c-9.64-4.84-14.24-18.43-10.35-32.15 4.27-15.1 17.19-24.65 28.86-21.34.26.07.52.15.77.24z" fill="#96c596"></path><path d="m171.16 438.71-60.94-83.79 40.266-59.177-21.486-12.513-48.78 71.69 60.94 83.79a61.324 61.324 0 0 1 12.69 37.36v19.93h30v-19.93a61.324 61.324 0 0 0 -12.69-37.36z" fill="#789678"></path><path d="m240.96 316.51-7.51 29.57-.11.13a83.4 83.4 0 0 1 13.7 14.18l12.236 2.562 8.76-34.716a64.173 64.173 0 0 1 -27.076-11.726z" fill="#5e7c5e"></path><path d="m270.96 316.51v-.01a64.506 64.506 0 0 1 -26.01-51.83 46.8 46.8 0 0 1 19.477-38l29.6-21.287c-6.088-7.443-10.828-19.194-12.528-37.057-.75-.03-1.5-.04-2.26-.04-4.27 31.49-17.19 42.27-29.82 44.75l-.01.01c-13.81 15.72-25.01 23.58-34.52 27.49l.06.14v23.99a64.5 64.5 0 0 0 26.01 51.83v.01a64.415 64.415 0 0 0 53.45 10.971 64.219 64.219 0 0 1 -23.449-10.967z" fill="#789678"></path><path d="m16.963 160.766c0 20.349 10.652 36.594 24.8 38.809l6.607 44.174a5 5 0 0 0 4.945 4.26h.008l26.305 98.9-3.538 5.2a5 5 0 0 0 .09 5.754l60.939 83.793c.026.035.052.071.079.106a56.6 56.6 0 0 1 11.658 34.312v19.926a5 5 0 0 0 5 5h289.213a5 5 0 0 0 4.7-3.3l1.506-4.163a22.288 22.288 0 0 0 4.711.5 25.178 25.178 0 0 0 12.259-3.31c7.852-4.381 13.945-12.514 16.718-22.312 4.309-15.223-.658-30.438-11.2-37.007l22.978-63.488a5 5 0 0 0 -3.686-6.6l-80.125-16.619a5 5 0 0 0 -5.733 3.239l-6.846 19.493a48.4 48.4 0 0 0 -5.843-8.933 63.76 63.76 0 0 0 -11.431-10.37l3.609-1.33a8.859 8.859 0 0 0 5.634-10.469l-22.213-86.96a26.96 26.96 0 0 1 4.923.672 5 5 0 0 0 5.9-6.437l-3.467-10.465 48.65-14.568a8.286 8.286 0 0 0 -.515-16.01l-58.324-13.446a101.1 101.1 0 0 0 -9.58-22.112l36.244-59.353c.047-.077.092-.156.134-.235a8.281 8.281 0 0 0 -11.639-10.978l-60.433 37.075a94.061 94.061 0 0 0 -13.885-5.556c-.707-.221-1.418-.416-2.127-.621l-16.277-69.337c-.022-.1-.047-.191-.076-.286a8.276 8.276 0 0 0 -15.988.466l-16.273 67.772q-3.66.837-7.276 1.955a94.2 94.2 0 0 0 -14.066 5.611l-60.4-37.046a8.281 8.281 0 0 0 -11.682 10.951c.043.08.088.158.135.235l36.242 59.351a101.048 101.048 0 0 0 -9.582 22.114l-58.321 13.446a8.286 8.286 0 0 0 -.514 16.01l48.56 14.541-3.349 10.106a4.988 4.988 0 0 0 3.93 6.5l-13.867 48.79-31.957-18.609-33.638-112.277 4.38-45.716h1.048a5 5 0 0 0 5-5v-23.254a5 5 0 0 0 -5-5h-6.294a40.767 40.767 0 0 0 5.5-35.236 5.012 5.012 0 0 0 -9.11-1.128 6.272 6.272 0 0 1 -6.734 2.9 6.52 6.52 0 0 1 -5.229-5.479c-2.455-15.488-9.992-34.737-10.312-35.549a5 5 0 0 0 -8.284-1.6c-22.201 23.468-32.079 44.309-29.354 61.939a33.762 33.762 0 0 0 5.6 14.153h-12.7a5 5 0 0 0 -5 5v23.254a5 5 0 0 0 5 5h2.043l.743 4.966c-8.386 6.689-13.923 19.22-13.923 33.886zm34.787 38c12.437-4.064 21.436-19.3 21.436-38 0-20.47-10.779-36.793-25.05-38.852h45.787l-4.375 45.664v.016l-6.748 70.415h-25.18zm198.772 292.234 65.54-111.052 16.07 3.364a50.871 50.871 0 0 0 10.424 1.076 51.814 51.814 0 0 0 17.667-3.12l-34.823 109.732zm-30.567-226.326v-20.874c9.126-4.4 19.651-12.268 32.122-26.233a33.733 33.733 0 0 0 6.729-2.445c9.6-4.71 16.674-13.832 21.151-27.217 5.227 18.425 14.6 26.986 23.279 30.845 14.785 16.5 25.885 24.416 35.619 28.042v17.882a59.45 59.45 0 1 1 -118.9 0zm15.368 53.726-4.891 19.26c-3.975-2.916-8.017-5.561-11.97-8l2.682-27.187a70.105 70.105 0 0 0 14.179 15.927zm-8.189-113.118a58.225 58.225 0 0 1 46.173-31.69c-3.2 16.977-9.523 27.921-18.858 32.53-9.924 4.898-21.349 1.585-27.315-.841zm60.07-31.452a58.035 58.035 0 0 1 45.13 33.516 27.509 27.509 0 0 1 -22.269 3.3c-12.023-3.657-19.865-16.34-22.865-36.817zm-43.124 150.716a69.137 69.137 0 0 0 70.664-.008l12.048 47.439-77-16.124a89.021 89.021 0 0 0 -10.792-11.306zm91.259 40.459 33.807-12.467a50.747 50.747 0 0 1 9.317 6.2l-12.681 8.576a41.545 41.545 0 0 1 -28.138 6.771zm138 100.692c-2.025 7.157-6.5 13.252-11.969 16.3a14.088 14.088 0 0 1 -10.72 1.584c-9-2.558-13.464-14.748-9.947-27.172 2.025-7.157 6.5-13.252 11.969-16.3a15.274 15.274 0 0 1 7.35-2.053 12.312 12.312 0 0 1 3.371.468c9.007 2.559 13.467 14.748 9.95 27.176zm-72.364-59.424a49.33 49.33 0 0 0 2.338-22.8l9.864-28.083 70.191 14.559-21.068 58.235a24.726 24.726 0 0 0 -14.492 3.192c-7.851 4.382-13.945 12.515-16.718 22.313-4.013 14.18.023 28.353 9.117 35.539l-.646 1.772h-68.4zm-15.344-40.315a39.428 39.428 0 0 1 5.912 36.995l-30.986 88.047h-24.67l36.936-116.378zm-5.279-28.213-47.492 17.514-9.364-36.87a69.518 69.518 0 0 0 25.355-53.715v-15.435a60.567 60.567 0 0 0 8.991.379zm-11.646-132.445c-.139-1.213-.385-3.031-.8-5.309l47.134 10.866-42.722 12.793-4.632-13.982a6.619 6.619 0 0 0 1.02-4.368zm-1.729 34.031c-2.237-.037-4.4.072-6.531.179-10.35.516-21.013 1.038-40.635-17.906 8.706-.585 16.418-4.128 20.714-8.038l17.681-.709zm12.609-130.631-30.031 49.181a83.818 83.818 0 0 0 -19.744-18.652zm-99.905-41.148 13.454 57.315a96.814 96.814 0 0 0 -27.038-.743zm-105.248 41.148 49.782 30.533a83.8 83.8 0 0 0 -19.751 18.648zm76.627 28.76a87.228 87.228 0 0 1 52.071.043c42.561 13.3 52.789 51.466 55.127 65.346l-16.679.669a68.415 68.415 0 0 0 -124.3-.82h-21.495c2.386-14.011 12.716-52.037 55.276-65.238zm-55.292 75.24h23.508a57.076 57.076 0 0 0 18.317 5.633c-21.456 21.239-35.06 21.123-47.212 21.012-1.161-.011-2.305-.023-3.435-.016zm17.094 71.866-3.892 39.449-.84-.49-12.984-7.56 10.833-67.57q1.939-.351 3.976-.882v17.162a69.443 69.443 0 0 0 2.907 19.89zm-73.879-73.706 47.13-10.865c-.417 2.272-.662 4.086-.8 5.3a6.615 6.615 0 0 0 .961 4.27l-4.659 14.063zm50.572 38.479h.73c1.75.016 3.553.031 5.414 0l-9.816 61.232-11.783-6.861zm9.715 80.6-30.505 44.4a5 5 0 1 0 8.242 5.661l30.922-45.008c19.607 11.571 41.838 26.521 46.634 55.442a5 5 0 0 0 9.866-1.636 70.8 70.8 0 0 0 -6.964-21.121l48.262 10.105-66.817 113.218h-71.649l57.926-55.3a5 5 0 0 0 -6.906-7.232l-59.428 56.732v-9.131a66.129 66.129 0 0 0 -2.182-16.764l18.309-25.726a5 5 0 1 0 -8.147-5.8l-14.3 20.092a65.938 65.938 0 0 0 -7.369-12.157l-25.564-35.142 24.332-35.746a5 5 0 0 0 -8.267-5.627l-22.309 32.781-27.022-37.156 44.18-64.923zm-75.74-47.548-36.465 53.583-23.4-87.965h23.679a5 5 0 0 0 4.977-4.523l4.738-49.455zm-57.208-256.891c2.363 6.856 5.58 17.128 6.951 25.783a16.615 16.615 0 0 0 22.727 12.8c.7 13.306-7.392 21.815-10.5 24.577h-31.021a23.8 23.8 0 0 1 -9.431-15.876c-1.872-12.784 5.464-29.037 21.274-47.284zm-33.222 73.16h66.917v13.254h-66.917zm8.912 23.254c-.576.083-1.145.195-1.709.324l-.049-.324zm3.062 9.776c9.818 0 18.112 13.315 18.112 29.076s-8.294 29.076-18.112 29.076-18.111-13.315-18.111-29.076 8.294-29.076 18.111-29.076z" fill="#284268"></path></svg>